<svg version="1" xmlns="http://www.w3.org/2000/svg" width="1365.333" height="1365.333" viewBox="0 0 1024.000000 1024.000000"><path d="M430.5 199.2c-.3.7-3.2 11.1-6.4 23.2-3.3 12-6.3 22.2-6.8 22.6-.4.4-9.4 3-20 5.9l-19.2 5.1H256v32.6l-78.1 20.9c-43 11.5-78.3 21.4-78.5 22-.6 1.3 130.5 491.6 131.7 492.9.4.5 45.6-11.1 107.8-27.8l107-28.6h133.7l106.3 28.6c58.5 15.7 106.4 28.4 106.5 28.2.6-.8 132.7-494.1 132.4-494.2-.2-.1-35.5-9.7-78.5-21.2L768 288.5V256H647.1l-18.8-5c-10.3-2.8-19.7-5.4-20.9-5.9-1.6-.7-3.1-4.9-7.9-23.1-3.2-12.2-6.4-22.4-7-22.7-.7-.2-18.9 4.3-40.5 10.1l-39.3 10.5-39.1-10.5c-21.5-5.7-39.9-10.7-40.9-11-.9-.3-1.9.1-2.2.8zm247 67.2c134.1 36 244 65.7 244.2 66 .6.5-130.2 488.4-131.1 489.3-.5.6-488.4-130.2-489.3-131.1-.4-.4 125.8-472.5 130.3-487.9.3-.9.9-1.7 1.4-1.7.5 0 110.5 29.4 244.5 65.4zm-263.7-6.7c-.3 1-26.5 98.7-58.3 217-31.8 118.4-57.7 215.5-57.4 215.7.2.2 59.4 16.2 131.4 35.6 72.1 19.3 133 35.7 135.5 36.5 3.8 1.2-18.1 1.4-151.2 1.4L258 766V258h78.1c73.9 0 78.1.1 77.7 1.7zM766 272.5c0 10.4-.3 14.5-1.2 14.5-1.4 0-106.1-28.1-106.7-28.6-.2-.2 23.9-.4 53.7-.4H766v14.5z"/><path d="M652.5 360.6c-7.1 1.8-12.2 4-16.1 7l-4.5 3.5-5.4-1.6c-6.8-1.9-16.9-1.9-22.8.1-2.5.8-6.6 3.3-9 5.4l-4.4 3.9-5.9-1.6c-13-3.4-25.1.1-33.8 9.8-5 5.5-6.1 8.6-12.7 33.6-2.8 10.8-3.5 12.3-5.3 12.3-5.3.1-16.8 3.3-24.1 6.9-13.3 6.3-22.3 15.1-29 28.2-2.8 5.6-13.1 39.7-12.2 40.6.2.1 7.6-1.2 16.5-2.9l16.1-3.2 6.1 6.6c7.4 8.2 15 12.2 30.3 16.3 9.9 2.6 10.8 3 10.2 4.9-.3 1.2-1.9 7.3-3.6 13.6-4.9 18.6-4 32.9 3 44.4l1.9 3.1-13.4 16.9c-7.4 9.3-13.3 17.1-13.1 17.3.2.2 39.9 10.9 88.2 23.9 61.8 16.5 88.1 23.1 88.6 22.3.3-.6 2.6-8.5 4.9-17.5l4.3-16.3 4.7.6c6.9.8 14.7-1.8 20.4-6.8 5-4.5 7.5-8.7 9.6-16.1 1.2-4.5 1.1-4.9-1.8-9.9l-2.9-5.1 5.2-5.2c5.2-5.1 9.5-13.7 9.5-18.9 0-1.2-4.3-9.6-9.5-18.6l-9.5-16.4 1-9c1.8-15.6-1.5-35.4-8.5-51.2-6.7-15-20.3-31.5-33.3-40.3-3.4-2.4-6.2-4.8-6.2-5.5 0-.7 3.8-15.4 8.4-32.7 4.7-17.3 8.3-31.6 8.1-31.8-.2-.2-8.6-2.6-18.6-5.3-17.6-4.8-27.1-6.4-31.4-5.3zm-9.1 79.8c9.3 2.6 19.9 5.9 23.5 7.4 20.7 8.7 37.5 27.4 45.2 50.2 2.6 7.8 3.3 11.5 3.7 20.8.3 6.5-.1 14.5-.8 18.8l-1.2 7.5 9.6 16.6c9.3 16 9.6 16.7 8.1 19-3 4.6-5.7 5-15.8 2.3-5.1-1.3-9.8-2.5-10.5-2.8-.6-.2 3.1 7 8.3 16.2 5.2 9.1 9.5 17.1 9.5 17.8 0 .6-1 2.2-2.2 3.5-2.7 2.9-6.9 3-16.6.3-3.9-1.1-7.8-2-8.5-2-.8 0-2.8 5.8-5.6 16.4-2.4 9-4.6 16.8-5 17.3-.6 1-132.1-33.7-132.1-34.8 0-.5 16-21.2 18-23.3.5-.5 3.1.1 6.2 1.4 10.9 4.8 24.7 2.5 33.7-5.6 6.8-6.1 10.3-13.5 10.9-22.9.6-8.9-.1-10.6-14.8-35.8L596.8 511l2.1-2.6c1.2-1.5 2.1-4 2.1-5.6 0-2.5-11.8-24.2-25.2-46.5l-1.9-3.1 9.6-5.7c24.1-14.1 31.2-15 59.9-7.1zm-87.6 14.4l10.3 2.8 12.4 21.8c6.9 12.1 12.3 22.1 12.1 22.4-.3.2-17.9-4.3-39.3-10l-38.8-10.4-9 1.8c-4.9 1-9.6 1.7-10.3 1.6-2.1-.5 5-13.6 10.2-19 2.4-2.6 6.2-5.8 8.3-7.1 3.8-2.4 13.7-6.2 18.3-7.1 4.8-.9 15.6.5 25.8 3.2zm-11.3 44.7c13.8 3.6 25.5 6.8 26.2 7 1.4.5-.4 8.5-2 8.5-3 0-36.8-9.6-40.8-11.6-3.9-1.9-11.9-9.3-11.9-11 0-.3.8-.3 1.8 0 .9.2 13 3.4 26.7 7.1z"/><path d="M618.1 456.8c-4.5 2.4-6.1 5.7-9.6 19.4l-2.9 11.4 2 3.9c4.9 10 18 11.3 23.8 2.3 2.1-3.3 6.8-21.5 6.8-26-.2-9.8-11.2-15.8-20.1-11z"/></svg>